<svg xmlns="http://www.w3.org/2000/svg" viewBox="0 0 64 64">
  <rect width="64" height="64" fill="#140606"/>
  <rect x="3" y="3" width="58" height="58" rx="8" fill="#1a0808" stroke="#ff3a1a" stroke-width="1.3"/>
  <circle cx="32" cy="12" r="10" fill="#ffe36b" opacity=".22"/>
  <circle cx="32" cy="12" r="5" fill="#ff6a32" opacity=".7"/>
  <path d="M8 20h48" stroke="#ffe36b" stroke-width="1.2" opacity=".55"/>
  <rect x="10" y="22" width="8" height="16" rx="1" fill="#2a1014"/>
  <rect x="20" y="24" width="7" height="14" rx="1" fill="#241018"/>
  <rect x="37" y="23" width="8" height="15" rx="1" fill="#22101a"/>
  <rect x="47" y="22" width="8" height="16" rx="1" fill="#2a1014"/>
  <circle cx="14" cy="28" r="1.4" fill="#c45cff" opacity=".7"/>
  <circle cx="41" cy="29" r="1.4" fill="#5ee8d0" opacity=".55"/>
  <circle cx="51" cy="27" r="1.3" fill="#ffe36b" opacity=".55"/>
  <path d="M6 40h52" stroke="#ff5a28" stroke-width="1.2" opacity=".4"/>
  <rect x="6" y="42" width="52" height="16" fill="#1c0a0a"/>
  <path d="M10 46h44" stroke="#ffe36b" stroke-width=".8" stroke-dasharray="5 4" opacity=".5"/>
  <path d="M8 50h48" stroke="#ff3a1a" stroke-width=".6" opacity=".3"/>
  <circle cx="20" cy="34" r="3.1" fill="#e8b090"/>
  <path d="M16.6 32.4c1.2-2.4 5.6-2.6 6.8 0" fill="#c41e14"/>
  <rect x="17.4" y="36.6" width="5.4" height="7" rx=".5" fill="#c41e14"/>
  <rect x="17.2" y="43" width="5.8" height="3.4" fill="#1a1210"/>
  <rect x="17.6" y="42" width="5" height="1.4" fill="#ffe36b"/>
  <path d="M23 38.2h8" stroke="#ff6a32" stroke-width="1.6" stroke-linecap="round"/>
  <circle cx="44" cy="33" r="2.9" fill="#e8b090"/>
  <path d="M40.8 31.2c1.4-2.6 5.8-2.2 6.6.4" fill="#401858"/>
  <rect x="41.4" y="35.6" width="5.2" height="7" rx=".5" fill="#401858"/>
  <rect x="41.2" y="42.2" width="5.6" height="3.6" fill="#120810"/>
  <circle cx="32" cy="36" r="2.4" fill="#ffe36b" opacity=".85"/>
  <circle cx="32" cy="36" r="1.1" fill="#fff8d8"/>
  <circle cx="12" cy="38" r=".8" fill="#ff3a1a"/>
  <circle cx="52" cy="36" r=".8" fill="#c45cff"/>
</svg>
