<svg xmlns="http://www.w3.org/2000/svg" viewBox="0 0 64 64">
  <rect width="64" height="64" fill="#0e0408"/>
  <rect x="4" y="4" width="56" height="56" rx="8" fill="#160810" stroke="#ff2458" stroke-width="1.4"/>
  <circle cx="50" cy="12" r="7" fill="#ff2458" opacity=".32"/>
  <rect x="8" y="26" width="6" height="24" fill="#1a0c10"/>
  <rect x="8" y="26" width="6" height="2" fill="#ff2458" opacity=".7"/>
  <ellipse cx="11" cy="24" rx="5" ry="4" fill="#3dff7a" opacity=".28"/>
  <rect x="50" y="22" width="7" height="28" fill="#1a0812"/>
  <rect x="50" y="22" width="7" height="2" fill="#ff2458"/>
  <path d="M4 50h56" stroke="#ff2458" stroke-width="2" opacity=".55"/>
  <path d="M22 50h12" stroke="#00f0ff" stroke-width="1.4" opacity=".45"/>
  <circle cx="24" cy="30" r="3.4" fill="#e8b0a0"/>
  <rect x="21.2" y="33.2" width="5.6" height="8.2" rx="1" fill="#ff2458"/>
  <rect x="21" y="36.2" width="6" height="1.4" fill="#ffe36b"/>
  <rect x="21.4" y="41.4" width="2.2" height="3.4" fill="#ff2458"/>
  <rect x="24.6" y="41.4" width="2.2" height="3.4" fill="#ff2458"/>
  <path d="M27 35.6c5.2-4.6 11.4-2 13.2 3" stroke="#ffe36b" stroke-width="1.6" fill="none"/>
  <circle cx="16" cy="26" r="2.4" fill="#00f0ff" opacity=".55"/>
  <rect x="14.2" y="28.4" width="3.6" height="5.2" rx=".5" fill="#00f0ff" opacity=".4"/>
  <circle cx="32" cy="22" r="2.1" fill="#00f0ff" opacity=".42"/>
  <rect x="30.4" y="24.2" width="3.2" height="4.4" rx=".5" fill="#00f0ff" opacity=".32"/>
  <path d="M18 31l6-1.4-3.4 2.4z" fill="#00f0ff" opacity=".7"/>
  <circle cx="42" cy="32" r="1.4" fill="#ffe36b"/>
  <circle cx="46" cy="30" r="1" fill="#00f0ff"/>
  <rect x="38" y="42" width="8" height="8" rx="1" fill="#a82a34"/>
  <rect x="39.2" y="43.4" width="2.2" height="2.2" fill="#ff2458"/>
  <rect x="42.4" y="43.4" width="2.2" height="2.2" fill="#ffe36b"/>
</svg>
