<svg xmlns="http://www.w3.org/2000/svg" viewBox="0 0 64 64">
  <rect width="64" height="64" fill="#160802"/>
  <rect x="3" y="3" width="58" height="58" rx="8" fill="#1c0c06" stroke="#ff4a14" stroke-width="1.3"/>
  <circle cx="48" cy="14" r="9" fill="#ff7a32" opacity=".55"/>
  <circle cx="48" cy="14" r="5.6" fill="#ffd24a" opacity=".9"/>
  <path d="M8 20c6 3 11-3 16 2 5 4 9-2 16 1 6 2 9-3 14 1" fill="none" stroke="#ff8ab0" stroke-width=".8" opacity=".7"/>
  <path d="M6 46h52" stroke="#ff4a14" stroke-width="1.3" opacity=".5"/>
  <rect x="6" y="46" width="52" height="12" fill="#22100a"/>
  <path d="M8 50h48" stroke="#4a2010" stroke-width=".6"/>
  <path d="M10 54h44" stroke="#2a120c" stroke-width=".5"/>
  <path d="M28 46v-14h8v14" fill="#3a1410"/>
  <path d="M24 32l8-7 8 7" fill="#8a2818"/>
  <rect x="29.5" y="36" width="5" height="10" fill="#1a0a08"/>
  <circle cx="16" cy="22" r="1.1" fill="#ff8ab0"/>
  <circle cx="24" cy="17" r="0.9" fill="#ffd24a"/>
  <circle cx="36" cy="19" r="1" fill="#ff8ab0"/>
  <ellipse cx="18" cy="23" rx="4.4" ry="1.5" fill="#e8c878"/>
  <circle cx="18" cy="26" r="3.1" fill="#e8b898"/>
  <rect x="15.4" y="30" width="5.4" height="9.2" rx=".8" fill="#ece6d4"/>
  <rect x="15.2" y="35" width="5.8" height="1.4" fill="#c41e14"/>
  <rect x="15.6" y="39" width="2" height="7" fill="#3a1a14"/>
  <rect x="18.6" y="39" width="2" height="7" fill="#2a120e"/>
  <path d="M20.8 32.6l16-8.2" stroke="#ffd24a" stroke-width="1.8" stroke-linecap="round"/>
  <path d="M20.8 32.6l16-8.2" stroke="#fff" stroke-width=".5" stroke-linecap="round" opacity=".7"/>
  <circle cx="46" cy="26" r="3.1" fill="#f0c0c8"/>
  <path d="M48.8 20.4c1.2-2.6 3.6-2 4.2.4" fill="#ff8ab0"/>
  <rect x="43.4" y="29.4" width="5.2" height="9.2" rx=".8" fill="#ffd0dc"/>
  <rect x="43.2" y="34" width="5.6" height="1.3" fill="#ff5a8c"/>
  <rect x="43.6" y="38.4" width="2" height="7.6" fill="#4a1824"/>
  <rect x="46.4" y="38.4" width="2" height="7.6" fill="#321018"/>
  <path d="M43.2 33l-11-5" stroke="#ff8ab0" stroke-width="1.6" stroke-linecap="round"/>
  <circle cx="32" cy="29" r="2.3" fill="#ffd24a" opacity=".85"/>
  <circle cx="32" cy="29" r="1" fill="#fff8d8"/>
  <circle cx="12" cy="36" r="0.8" fill="#ff4a14"/>
  <circle cx="54" cy="34" r="0.8" fill="#ff8ab0"/>
</svg>
