<svg xmlns="http://www.w3.org/2000/svg" viewBox="0 0 64 64">
  <rect width="64" height="64" fill="#140806"/>
  <rect x="4" y="4" width="56" height="56" rx="9" fill="#1a0c06" stroke="#ff7a28" stroke-width="1.3"/>
  <path d="M6 44h6v14H6zM13 38h7v20h-7zM21 41h5v17h-5zM27 34h8v24h-8zM36 39h6v19h-6zM43 36h7v22h-7zM51 42h7v16h-7z" fill="#241008"/>
  <path d="M6 44h52" stroke="#ff7a28" stroke-width="1.1" opacity=".85"/>
  <g fill="#ffc14a" opacity=".7">
    <rect x="15" y="42" width="1.4" height="1.4"/>
    <rect x="18" y="46" width="1.4" height="1.4"/>
    <rect x="29" y="38" width="1.4" height="1.4"/>
    <rect x="32" y="44" width="1.4" height="1.4"/>
    <rect x="45" y="40" width="1.4" height="1.4"/>
    <rect x="48" y="46" width="1.4" height="1.4"/>
  </g>
  <circle cx="14" cy="16" r="0.9" fill="#ff9a40" opacity=".55"/>
  <circle cx="22" cy="12" r="0.7" fill="#fff4e8" opacity=".4"/>
  <circle cx="48" cy="18" r="0.8" fill="#ffc14a" opacity=".5"/>
  <path d="M8 28l12-4.2v8.4z" fill="#fff4e8"/>
  <rect x="14" y="25.4" width="11" height="5.2" rx=".6" fill="#ffc14a"/>
  <rect x="16.2" y="26.8" width="7" height="2.4" rx=".3" fill="#140806"/>
  <path d="M11 26.2h5l1.4 1.6H11z" fill="#ff7a28"/>
  <circle cx="36" cy="28" r="7.2" fill="none" stroke="#ff7a28" stroke-width="1.2" opacity=".9"/>
  <circle cx="36" cy="28" r="2.4" fill="#ffc14a"/>
  <path d="M36 21.6v3.2M36 31.2v3.2M29.6 28h3.2M39.2 28h3.2" stroke="#fff4e8" stroke-width=".7"/>
  <circle cx="42.6" cy="22.4" r="2.1" fill="#ff7a28"/>
  <circle cx="42.6" cy="22.4" r="0.8" fill="#ffc14a"/>
  <circle cx="42.6" cy="33.6" r="2.1" fill="#ff7a28"/>
  <circle cx="42.6" cy="33.6" r="0.8" fill="#ffc14a"/>
</svg>
