<svg xmlns="http://www.w3.org/2000/svg" viewBox="0 0 64 64">
  <rect width="64" height="64" fill="#100c04"/>
  <rect x="4" y="4" width="56" height="56" rx="9" fill="#1a1408" stroke="#ffd43a" stroke-width="1.3"/>
  <path d="M4 8h56v9H4zM4 47h56v9H4z" fill="#241c0c"/>
  <path d="M4 17h56M4 47h56" stroke="#ffd43a" stroke-width="1.2" opacity=".85"/>
  <path d="M18 12c6 2 10-2 16 0 5 1 9-1 14 1" stroke="#ffb020" stroke-width="1.4" fill="none" opacity=".7"/>
  <path d="M10 52c8-3 14 1 22-1 7-2 14 2 20 0" stroke="#ff8c28" stroke-width="1.4" fill="none" opacity=".7"/>
  <rect x="20" y="10" width="5" height="8" rx="1" fill="#3a2c10" opacity=".7"/>
  <rect x="38" y="46" width="6" height="8" rx="1" fill="#3a2c10" opacity=".7"/>
  <path d="M8 32l12-4.6v9.2z" fill="#ffd43a"/>
  <rect x="15" y="29.2" width="11" height="5.6" rx=".8" fill="#fff6e4"/>
  <rect x="17" y="30.6" width="7" height="2.8" rx=".4" fill="#100c04"/>
  <path d="M13 30h4l1.5 2H13z" fill="#5af0ff"/>
  <path d="M22 20l4.2 3-4.2 3z" fill="#5af0ff"/>
  <path d="M22 38l4.2 3-4.2 3z" fill="#5af0ff"/>
  <path d="M24 22.8h22" stroke="#5af0ff" stroke-width="1.6" opacity=".85"/>
  <path d="M24 41.2h18" stroke="#5af0ff" stroke-width="1.4" opacity=".7"/>
  <rect x="24" y="31.2" width="16" height="1.8" rx=".4" fill="#ffd43a"/>
  <rect x="26" y="28.6" width="10" height="1.2" rx=".3" fill="#ffb020" opacity=".8"/>
  <rect x="26" y="34.4" width="8" height="1.2" rx=".3" fill="#ffb020" opacity=".7"/>
  <circle cx="48" cy="32" r="5.2" fill="#241808" stroke="#ff8c28" stroke-width="1.1"/>
  <circle cx="48" cy="32" r="2.2" fill="#ffd43a"/>
  <circle cx="48" cy="32" r="0.9" fill="#fff6e4"/>
</svg>
