<svg xmlns="http://www.w3.org/2000/svg" viewBox="0 0 64 64">
  <rect width="64" height="64" fill="#080614"/>
  <rect x="5" y="5" width="54" height="54" rx="9" fill="#100c22" stroke="#8a6cff" stroke-width="1.3"/>
  <circle cx="14" cy="14" r="1.1" fill="#ffe36b"/>
  <circle cx="24" cy="11" r="0.8" fill="#5ce8ff"/>
  <circle cx="48" cy="16" r="1" fill="#ff4ad8"/>
  <circle cx="36" cy="13" r="0.7" fill="#f4f0ff"/>
  <path d="M12 22l6-4 5 2-2 7-7 3z" fill="#201840" stroke="#8a6cff" stroke-width=".9"/>
  <path d="M40 18l7-2 5 5-4 6-7 1z" fill="#182040" stroke="#5ce8ff" stroke-width=".8"/>
  <path d="M18 28l4-2 3 3-1 4-5 1z" fill="#2a1830" stroke="#ff4ad8" stroke-width=".7"/>
  <circle cx="20" cy="30" r="1.2" fill="#ffe36b"/>
  <circle cx="28" cy="24" r="1" fill="#ffe36b"/>
  <circle cx="44" cy="26" r="1.1" fill="#5ce8ff"/>
  <circle cx="34" cy="22" r="0.8" fill="#f4f0ff"/>
  <path d="M32 38l3.4 10h-2.2l-1.2 2.8-1.2-2.8h-2.2z" fill="#5ce8ff"/>
  <path d="M27 47h10v2.2H27z" fill="#8a6cff"/>
  <rect x="31.1" y="42" width="1.8" height="7" fill="#f4f0ff"/>
  <path d="M22 46l-6 6 4-1 2 4zM42 46l6 6-4-1-2 4z" fill="#8a6cff"/>
  <rect x="24" y="49" width="3.4" height="2" fill="#ff4ad8"/>
  <rect x="36.6" y="49" width="3.4" height="2" fill="#ff4ad8"/>
  <circle cx="22" cy="50" r="2.4" fill="#ffe36b"/>
  <circle cx="42" cy="50" r="2.4" fill="#ffe36b"/>
</svg>
