<svg xmlns="http://www.w3.org/2000/svg" viewBox="0 0 64 64">
  <rect width="64" height="64" fill="#0c0803"/>
  <rect x="4" y="4" width="56" height="56" rx="8" fill="#161006" stroke="#ffb01a" stroke-width="1.4"/>
  <circle cx="48" cy="14" r="6.2" fill="#ffe36b" opacity=".7"/>
  <path d="M4 44 Q18 36 28 42 Q42 52 60 38 L60 60 L4 60 Z" fill="#1a1006"/>
  <path d="M4 44 Q18 36 28 42 Q42 52 60 38" fill="none" stroke="#ffb01a" stroke-width="1.6" opacity=".7"/>
  <path d="M10 46 L14 28 L18 46" fill="#2a6a28"/>
  <ellipse cx="14" cy="26" rx="7" ry="4" fill="#3dff7a" opacity=".75"/>
  <circle cx="22" cy="30" r="3.4" fill="#ffe36b"/>
  <rect x="19.4" y="32.8" width="5.4" height="8.2" rx="1" fill="#ffb01a"/>
  <rect x="18.2" y="40.4" width="8.4" height="1.8" rx=".7" fill="#00f0ff"/>
  <circle cx="18.6" cy="42.2" r="1.3" fill="#c9e8ff"/>
  <circle cx="26.2" cy="42.2" r="1.3" fill="#c9e8ff"/>
  <path d="M28 28l9-2.2-5.4 4.4z" fill="#c88840"/>
  <circle cx="38" cy="34" r="2.4" fill="#ff6a3d"/>
  <circle cx="44" cy="38" r="2" fill="#3dff7a"/>
  <path d="M50 40c4-2 6 2 3 4" fill="none" stroke="#ff9ad4" stroke-width="1.4"/>
  <circle cx="52" cy="42" r="2.6" fill="#c88840"/>
</svg>
