<svg xmlns="http://www.w3.org/2000/svg" viewBox="0 0 64 64">
  <rect width="64" height="64" fill="#0b0614"/>
  <rect x="4" y="4" width="56" height="56" rx="9" fill="#12081c" stroke="#b44dff" stroke-width="1.3"/>
  <path d="M4 8h14v48H4zM46 8h14v48H46z" fill="#1a0a28"/>
  <path d="M18 8v48M46 8v48" stroke="#b44dff" stroke-width="1.3" opacity=".9"/>
  <rect x="21" y="12" width="10" height="7" rx="1" fill="#ff3db8"/>
  <rect x="22.2" y="13.2" width="7.6" height="2" fill="#ffe36b" opacity=".7"/>
  <rect x="33" y="22" width="11" height="4" rx=".6" fill="#00f0ff" opacity=".75"/>
  <rect x="34" y="23" width="9" height="2" fill="#0b0614"/>
  <circle cx="26" cy="30" r="3.2" fill="#ff3db8"/>
  <circle cx="26" cy="30" r="1.2" fill="#ffe36b"/>
  <path d="M38 34l3.4-2.2 3.4 2.2-1.2 4.4h-4.4z" fill="#c86bff"/>
  <rect x="28" y="42" width="8" height="5.2" rx=".7" fill="#ffe36b"/>
  <rect x="29.2" y="43.2" width="5.6" height="2.8" fill="#0b0614"/>
  <path d="M32 50.2l3.4 6.4h-2.2l-1.2 2.2-1.2-2.2h-2.2z" fill="#00f0ff"/>
  <rect x="31.2" y="56.4" width="1.6" height="2.4" fill="#7affd0"/>
</svg>
