<svg xmlns="http://www.w3.org/2000/svg" viewBox="0 0 64 64">
  <rect width="64" height="64" fill="#100610"/>
  <defs>
    <linearGradient id="sky" x1="0" y1="0" x2="0" y2="1">
      <stop offset="0" stop-color="#1a0818"/>
      <stop offset="0.38" stop-color="#6a1848"/>
      <stop offset="0.62" stop-color="#ff3d88"/>
      <stop offset="1" stop-color="#ff9ad0"/>
    </linearGradient>
    <linearGradient id="flame" x1="0" y1="0" x2="0" y2="1">
      <stop offset="0" stop-color="#ffe36b"/>
      <stop offset="0.4" stop-color="#ff3d88"/>
      <stop offset="1" stop-color="#00f0ff" stop-opacity="0"/>
    </linearGradient>
  </defs>
  <rect x="4" y="4" width="56" height="56" rx="10" fill="url(#sky)"/>
  <circle cx="48" cy="14" r="4.6" fill="#ffe36b"/>
  <path d="M4 28 L18 20 L30 26 L42 18 L54 24 L60 20 V34 H4Z" fill="#2a1028" opacity=".9"/>
  <path d="M4 32 L22 24 L34 30 L46 22 L60 28 V38 H4Z" fill="#1a0c18"/>
  <path d="M8 62 L26 32 L38 32 L56 62Z" fill="#221828"/>
  <path d="M12 62 L27 34 L37 34 L52 62Z" fill="#161018"/>
  <path d="M18 62 L29 38 L35 38 L46 62Z" fill="#ff3d88" opacity=".42"/>
  <path d="M4 36 H26 L8 62 H4Z" fill="#8a3a58"/>
  <path d="M38 36 H60 L56 62 H38Z" fill="#8a3a58"/>
  <path d="M16 46 L8 62" stroke="#00f0ff" stroke-width=".7" opacity=".55"/>
  <path d="M48 46 L56 62" stroke="#ff3d88" stroke-width=".7" opacity=".55"/>
  <ellipse cx="32" cy="54" rx="11" ry="3.2" fill="#121016"/>
  <path d="M29 56 l-2 8 3-1.2z" fill="url(#flame)"/>
  <path d="M35 56 l2 8 -3-1.2z" fill="url(#flame)"/>
  <path d="M26 50 L28.4 38 L35.6 38 L38 50 Z" fill="#ff3d88"/>
  <path d="M28.6 48 L29.6 40 L34.4 40 L35.4 48 Z" fill="#ff8ab8"/>
  <rect x="29.2" y="45.6" width="5.6" height="2.6" rx=".4" fill="#ffe36b"/>
  <circle cx="33.6" cy="35.4" r="2.5" fill="#fff0f6"/>
  <rect x="31.8" y="33.8" width="3.4" height="1.3" fill="#ff3d88"/>
  <rect x="24.6" y="46" width="3.2" height="4.2" rx=".4" fill="#ff3d88"/>
  <rect x="36.2" y="46" width="3.2" height="4.2" rx=".4" fill="#ff3d88"/>
  <path d="M22 44 L16 50" stroke="#1a1218" stroke-width="1.2"/>
  <path d="M42 44 L48 50" stroke="#1a1218" stroke-width="1.2"/>
</svg>
