<svg xmlns="http://www.w3.org/2000/svg" viewBox="0 0 64 64">
  <rect width="64" height="64" fill="#040c07"/>
  <rect x="3" y="3" width="58" height="58" rx="4" fill="#0a160e" stroke="#3dff4a" stroke-width="1.4"/>
  <path d="M6 50h52M6 32h52M6 12h52" stroke="#3dff4a" stroke-width="1" opacity=".28"/>
  <rect x="8" y="14" width="10" height="34" fill="#06140a" stroke="#00f0ff" stroke-width=".8" opacity=".85"/>
  <rect x="9" y="28" width="8" height="8" fill="#00f0ff" opacity=".55"/>
  <rect x="22" y="30" width="16" height="3" rx=".4" fill="#3dff4a" opacity=".45"/>
  <rect x="40" y="30" width="12" height="3" rx=".4" fill="#3dff4a" opacity=".35"/>
  <rect x="14" y="36" width="4.6" height="14" rx=".7" fill="#ffe36b"/>
  <rect x="14.4" y="33.6" width="3.8" height="3" rx=".7" fill="#00f0ff"/>
  <rect x="18.4" y="39" width="7" height="1.6" rx=".3" fill="#00f0ff"/>
  <ellipse cx="44" cy="48" rx="5" ry="3.4" fill="#7cff2a"/>
  <circle cx="46" cy="46.8" r="1" fill="#040c07"/>
  <ellipse cx="36" cy="16" rx="5" ry="3.2" fill="#ff3db8"/>
  <path d="M33 19c1 2.2 2.6 3.4 4.6 3.4" stroke="#ff3db8" stroke-width="1.1" fill="none"/>
  <circle cx="26" cy="47.4" r="2.2" fill="#b44dff"/>
  <path d="M22 40 L30 36" stroke="#00f0ff" stroke-width="1.4"/>
  <circle cx="52" cy="22" r="2.4" fill="#3dff4a" opacity=".7"/>
</svg>
